<svg width="25" height="24" viewBox="0 0 25 24" fill="none" xmlns="http://www.w3.org/2000/svg">
  <style> 
    :root {
      --color-fill: #fefefe;
      }
     svg { 
       cursor: pointer;
       fill: var(--color-fill);
     } 
  </style>
<path d="M0.986816 14.6701L6.9196 18.7912C6.9196 18.7912 6.74825 15.4843 8.66529 13.5516C9.93121 12.2753 11.7904 11.9173 12.9081 11.8211C11.7904 11.725 9.93121 11.367 8.66529 10.0907C6.74825 8.15625 6.92167 4.84937 6.92167 4.84937L0.986816 8.88473L3.97489 11.8195L0.986816 14.6701Z" />
<path d="M10.1592 -4.29279e-07L6.03811 5.93278C6.03811 5.93278 9.345 5.76144 11.2778 7.67847C12.5541 8.94439 12.9121 10.8036 13.0082 11.9213C13.1044 10.8036 13.4624 8.94439 14.7387 7.67847C16.6731 5.76144 19.98 5.93485 19.98 5.93485L15.9446 -1.76391e-07L13.0099 2.98807L10.1592 -4.29279e-07Z" />
<path d="M15.8591 23.8426L19.9802 17.9098C19.9802 17.9098 16.6733 18.0812 14.7406 16.1641C13.4643 14.8982 13.1063 13.039 13.0101 11.9213C12.9139 13.039 12.5559 14.8982 11.2796 16.1641C9.34522 18.0812 6.03833 17.9077 6.03833 17.9077L10.0737 23.8426L13.0084 20.8545L15.8591 23.8426Z" />
<path d="M24.8293 8.97045L18.8966 4.84933C18.8966 4.84933 19.0679 8.15621 17.1509 10.089C15.885 11.3653 14.0257 11.7233 12.908 11.8194C14.0257 11.9156 15.885 12.2736 17.1509 13.5499C19.0679 15.4843 18.8945 18.7912 18.8945 18.7912L24.8293 14.7558L21.8413 11.8211L24.8293 8.97045Z" />
</svg>

