<svg width="25" height="25" viewBox="0 0 25 25" fill="none" xmlns="http://www.w3.org/2000/svg">
  <style> 
  :root {
      --color-fill: #fefefe;
      }
     svg { 
       cursor: pointer;
       fill: var(--color-fill);
     } 
  </style>
<g clip-path="url(#clip0_76_20)">
<path d="M12.5963 22.6379C12.4358 20.7494 11.8382 17.6079 9.70781 15.4689C6.48161 12.2298 0.962391 12.5193 0.962391 12.5193C0.962391 12.5193 0.673333 18.0614 3.90023 21.3005C6.94924 24.3625 12.0467 24.2711 12.5963 24.2522C13.1466 24.2711 18.2434 24.3625 21.2931 21.3005C24.5193 18.0614 24.2309 12.5193 24.2309 12.5193C24.2309 12.5193 18.7145 12.2298 15.4848 15.4689C13.3551 17.6079 12.7568 20.7494 12.5963 22.6379Z" />
</g>
<g clip-path="url(#clip1_76_20)">
<path d="M12.6007 2.60467C12.7612 4.49319 13.3588 7.63466 15.4892 9.77363C18.7154 13.0128 24.2346 12.7233 24.2346 12.7233C24.2346 12.7233 24.5237 7.1812 21.2968 3.94205C18.2478 0.8801 13.1503 0.971491 12.6007 0.990327C12.0504 0.97149 6.95365 0.880099 3.90394 3.94205C0.677742 7.1812 0.966105 12.7233 0.966105 12.7233C0.966105 12.7233 6.48254 13.0128 9.71221 9.77363C11.8419 7.63466 12.4402 4.49319 12.6007 2.60467Z" />
</g>
<defs>
<clipPath id="clip0_76_20">
<rect width="12.0929" height="23.6298"  transform="translate(24.4116 12.3379) rotate(90)"/>
</clipPath>
<clipPath id="clip1_76_20">
<rect width="12.0929" height="23.6298"  transform="translate(0.7854 12.9047) rotate(-90)"/>
</clipPath>
</defs>
</svg>

