<svg width="24" height="23" viewBox="0 0 24 23" fill="none" xmlns="http://www.w3.org/2000/svg">
  <style> 
     :root {
      --color-fill: #fefefe;
      }
     svg { 
       cursor: pointer;
       fill: var(--color-fill);
     } 
  </style>
<g clip-path="url(#clip0_76_25)">
<path d="M13.4596 11.6181C15.2533 11.4656 18.237 10.8981 20.2686 8.87464C23.3451 5.81043 23.0701 0.56835 23.0701 0.56835C23.0701 0.56835 17.8063 0.293805 14.7298 3.35867C11.8216 6.25458 11.9084 11.0961 11.9263 11.6181C11.9084 12.1408 11.8216 16.9816 14.7298 19.8782C17.8063 22.9424 23.0701 22.6685 23.0701 22.6685C23.0701 22.6685 23.3451 17.4291 20.2686 14.3616C18.237 12.3388 15.2533 11.7705 13.4596 11.6181Z" />
</g>
<g clip-path="url(#clip1_76_25)">
<path d="M10.7697 11.6222C8.97598 11.7746 5.99224 12.3422 3.96067 14.3657C0.88417 17.4299 1.15915 22.6719 1.15915 22.6719C1.15915 22.6719 6.42294 22.9465 9.49944 19.8816C12.4076 16.9857 12.3208 12.1442 12.3029 11.6222C12.3208 11.0995 12.4076 6.25869 9.49944 3.36211C6.42294 0.297906 1.15916 0.57179 1.15916 0.57179C1.15916 0.57179 0.884173 5.81123 3.96068 8.87874C5.99224 10.9015 8.97598 11.4697 10.7697 11.6222Z" />
</g>
<defs>
<clipPath id="clip0_76_25">
<rect width="11.4857" height="22.4433"  transform="translate(23.2424 22.8401) rotate(-180)"/>
</clipPath>
<clipPath id="clip1_76_25">
<rect width="11.4857" height="22.4433"  transform="translate(0.986816 0.400208)"/>
</clipPath>
</defs>
</svg>

